<svg width="24" height="24" viewBox="0 0 24 24" fill="none" xmlns="http://www.w3.org/2000/svg">
<g id="icon-park-outline:soccer-one">
<g id="Group">
<path id="Vector" d="M14.5 7C15.163 7 15.7989 6.73661 16.2678 6.26777C16.7366 5.79893 17 5.16304 17 4.5C17 3.83696 16.7366 3.20107 16.2678 2.73223C15.7989 2.26339 15.163 2 14.5 2C13.837 2 13.2011 2.26339 12.7322 2.73223C12.2634 3.20107 12 3.83696 12 4.5C12 5.16304 12.2634 5.79893 12.7322 6.26777C13.2011 6.73661 13.837 7 14.5 7Z" stroke="#525056" stroke-width="2" stroke-miterlimit="2"/>
<path id="Vector_2" d="M9.5 23C9.89782 23 10.2794 22.842 10.5607 22.5607C10.842 22.2794 11 21.8978 11 21.5C11 21.1022 10.842 20.7206 10.5607 20.4393C10.2794 20.158 9.89782 20 9.5 20C9.10218 20 8.72064 20.158 8.43934 20.4393C8.15804 20.7206 8 21.1022 8 21.5C8 21.8978 8.15804 22.2794 8.43934 22.5607C8.72064 22.842 9.10218 23 9.5 23Z" fill="#525056"/>
<path id="Vector_3" d="M12.19 9.45508L10 13.5001M10 13.5001L13.655 16.5101C13.81 16.6301 13.92 16.7951 13.985 16.9801L15.5 22.0001M10 13.5001L7.255 17.3201C6.985 17.7151 6.475 17.8651 6.035 17.6801L2 16.0001" stroke="#525056" stroke-width="2" stroke-miterlimit="2" stroke-linecap="round" stroke-linejoin="round"/>
<path id="Vector_4" d="M21 11.9999H17.5C17.32 11.9999 17.14 11.9549 16.98 11.8649L15.375 10.9599C13.37 9.78494 11.175 8.97994 8.89 8.56994L7.28 8.28494C7.055 8.24494 6.82 8.28494 6.62 8.39494L3.5 9.99994" stroke="#525056" stroke-width="2" stroke-miterlimit="2" stroke-linecap="round" stroke-linejoin="round"/>
</g>
</g>
</svg>
